<svg aria-hidden="true" role="presentation" viewBox="0 0 20 20" fill="none" xmlns="http://www.w3.org/2000/svg" class="css-xlywr2"><path d="M11.2744 3.66611C12.0566 3.66611 12.6907 3.03201 12.6907 2.24981C12.6907 1.4676 12.0566 0.833496 11.2744 0.833496C10.4922 0.833496 9.85806 1.4676 9.85806 2.24981C9.85806 3.03201 10.4922 3.66611 11.2744 3.66611Z" fill="currentColor"></path><path d="M12.612 9.33134L12.7694 9.56739L13.0841 9.64608L16.1528 9.96081L16.4675 8.70187L13.7922 8.22977C13.7922 8.22977 12.3759 6.34136 11.9825 5.79057C10.9596 4.37426 10.2515 4.37426 10.2515 4.37426C9.77937 4.37426 9.46464 4.76768 9.38595 5.23978C8.52043 8.62319 6.00255 18.6947 6.00255 18.6947L7.49754 19.1668L9.70069 12.2426H9.77937L11.8252 14.2884L12.5333 19.1668L14.107 18.9308L13.3988 13.8163V13.5803L13.2415 13.3442L10.9596 10.669L11.7465 7.91503L12.612 9.33134Z" fill="currentColor"></path><path d="M8.28438 5.00374L7.10412 10.1182C7.10412 10.1182 6.78939 10.3542 6.15991 10.1182C2.14704 9.64609 5.13703 4.84637 6.94675 4.61032C8.75648 4.37427 8.28438 5.00374 8.28438 5.00374Z" fill="currentColor"></path></svg>